<svg xmlns="http://www.w3.org/2000/svg" viewBox="0 0 24 24" fill="#25D366">
  <path d="M12.04 2C6.58 2 2.13 6.45 2.13 11.91c0 1.75.46 3.45 1.32 4.95L2.05 22l5.25-1.38c1.45.79 3.08 1.21 4.74 1.21 5.46 0 9.91-4.45 9.91-9.91 0-2.65-1.03-5.14-2.9-7.01C17.18 3.03 14.69 2 12.04 2zm-.01 1.67c2.2 0 4.26.86 5.82 2.42 1.56 1.56 2.41 3.63 2.41 5.83 0 4.54-3.7 8.23-8.24 8.23-1.48 0-2.93-.39-4.19-1.15l-.3-.17-3.12.82.83-3.04-.2-.32A8.12 8.12 0 0 1 3.8 11.91c.01-4.54 3.7-8.24 8.23-8.24zm4.48 10.3c-.06-.1-.22-.16-.47-.28-.25-.13-1.47-.73-1.69-.81-.23-.08-.39-.12-.56.12-.16.25-.63.81-.78.97-.14.17-.29.19-.54.06-.25-.13-1.05-.39-2-.12-.74-.66-1.24-1.47-1.38-1.72-.14-.25-.02-.38.1-.5.11-.11.25-.29.37-.44.13-.14.17-.25.25-.41.08-.17.04-.31-.02-.44-.06-.12-.56-1.35-.77-1.85-.2-.48-.41-.42-.56-.43h-.48c-.17 0-.43.06-.66.31-.22.25-.87.85-.87 2.07 0 1.22.89 2.39 1.01 2.56.12.16 1.75 2.67 4.23 3.74.59.26 1.05.41 1.41.52.59.19 1.13.16 1.56.1.48-.07 1.47-.6 1.67-1.18.21-.58.21-1.07.15-1.17z"/>
</svg>
